<?xml version="1.0" standalone="no"?>
<!DOCTYPE svg PUBLIC "-//W3C//DTD SVG 20010904//EN"
 "http://www.w3.org/TR/2001/REC-SVG-20010904/DTD/svg10.dtd">
<svg version="1.0" xmlns="http://www.w3.org/2000/svg"
 width="227.000000pt" height="227.000000pt" viewBox="0 0 227.000000 227.000000"
 preserveAspectRatio="xMidYMid meet">
<metadata>
Created by potrace 1.11, written by Peter Selinger 2001-2013
</metadata>
<g transform="translate(0.000000,227.000000) scale(0.100000,-0.100000)"
fill="#000000" stroke="none">
<path d="M330 1500 c0 -121 1 -130 19 -130 16 0 19 10 23 66 4 66 15 84 47 79
13 -1 17 -17 19 -73 2 -62 5 -72 21 -72 16 0 19 9 18 73 0 78 -13 107 -51 107
-12 0 -30 -6 -41 -14 -19 -13 -20 -12 -17 40 4 49 2 54 -17 54 -20 0 -21 -5
-21 -130z"/>
<path d="M812 1607 c-15 -17 1 -42 23 -33 18 6 17 37 -1 43 -6 2 -16 -2 -22
-10z"/>
<path d="M1562 1607 c-15 -17 1 -42 23 -33 18 6 17 37 -1 43 -6 2 -16 -2 -22
-10z"/>
<path d="M32 1598 c-25 -13 -37 -46 -27 -78 4 -12 27 -31 51 -43 65 -31 56
-76 -14 -72 -36 2 -53 -12 -31 -26 49 -31 133 14 127 68 -3 25 -15 37 -84 79
-29 18 -6 49 37 50 23 0 34 5 34 15 0 18 -61 23 -93 7z"/>
<path d="M202 1544 c-21 -10 -43 -62 -40 -100 3 -47 38 -76 87 -72 48 4 50 33
3 33 -40 0 -54 19 -48 64 6 41 22 53 58 47 20 -4 26 -1 24 12 -3 17 -56 27
-84 16z"/>
<path d="M520 1460 c0 -82 2 -90 19 -90 16 0 19 8 20 56 0 57 12 84 37 84 8 0
14 9 14 20 0 23 -19 26 -39 8 -11 -10 -14 -10 -18 0 -3 6 -11 12 -19 12 -11 0
-14 -19 -14 -90z"/>
<path d="M668 1543 c-26 -7 -51 -68 -43 -106 10 -44 21 -55 61 -63 43 -8 84 2
84 20 0 11 -10 13 -38 9 -28 -4 -43 0 -55 12 -22 21 -22 35 1 36 9 0 35 1 57
2 33 2 41 6 43 24 7 46 -52 81 -110 66z m60 -35 c21 -21 13 -28 -28 -28 -38 0
-40 2 -30 20 12 22 40 26 58 8z"/>
<path d="M810 1459 c0 -81 2 -89 19 -89 18 0 19 7 18 87 -2 74 -5 86 -19 89
-16 2 -18 -8 -18 -87z"/>
<path d="M900 1461 c0 -85 1 -91 20 -91 12 0 20 6 19 13 -1 6 -1 33 0 59 1 50
19 78 48 74 15 -2 18 -15 21 -74 2 -63 5 -72 22 -72 16 0 18 8 18 73 0 78 -14
107 -52 107 -12 0 -32 -7 -44 -16 -16 -11 -22 -12 -20 -3 2 7 -5 15 -14 17
-16 3 -18 -6 -18 -87z"/>
<path d="M1113 1538 c-25 -12 -32 -27 -39 -80 -5 -31 -1 -42 20 -63 22 -22 34
-26 74 -23 34 2 47 7 47 18 0 11 -9 14 -32 12 -37 -4 -73 12 -73 33 0 11 13
15 48 16 26 1 53 1 60 0 19 -3 14 43 -7 70 -21 27 -63 34 -98 17z m65 -30 c21
-21 13 -28 -28 -28 -38 0 -40 2 -30 20 12 22 40 26 58 8z"/>
<path d="M1270 1461 c0 -84 1 -91 20 -91 18 0 20 7 20 58 0 44 5 63 18 75 10
10 22 14 25 10 4 -3 7 3 7 15 0 26 -17 28 -42 5 -15 -13 -19 -14 -16 -3 2 7
-5 16 -14 18 -16 3 -18 -6 -18 -87z"/>
<path d="M1418 1543 c-40 -10 -59 -111 -28 -148 25 -30 130 -31 130 -2 0 9
-11 12 -34 9 -39 -4 -76 12 -76 33 0 8 8 15 18 16 9 0 35 1 56 2 31 2 40 6 42
23 2 12 -6 34 -17 48 -20 25 -47 31 -91 19z m62 -27 c0 -2 3 -11 6 -20 5 -13
-2 -16 -35 -16 -39 0 -41 1 -31 20 9 17 60 30 60 16z"/>
<path d="M1560 1459 c0 -81 2 -89 19 -89 17 0 19 8 17 87 -1 74 -4 86 -18 89
-16 2 -18 -8 -18 -87z"/>
<path d="M19 1296 c-2 -2 -4 -76 -3 -163 l0 -158 32 -3 32 -3 0 70 0 70 34 -3
c47 -3 75 9 72 31 -2 14 -14 19 -54 21 l-52 3 0 43 0 43 55 -1 c54 -1 55 0 55
27 l0 27 -83 0 c-46 0 -86 -2 -88 -4z"/>
<path d="M413 1158 c-70 -209 -67 -190 -30 -186 26 2 33 9 41 36 9 32 9 32 72
32 l62 0 12 -35 c10 -31 16 -35 45 -35 l34 0 -57 165 -56 165 -37 0 -37 0 -49
-142z m100 14 c9 -26 19 -56 23 -65 5 -14 -1 -17 -39 -17 l-45 0 22 65 c11 35
22 65 22 65 1 0 9 -22 17 -48z"/>
<path d="M716 1208 c-4 -15 -24 -132 -32 -195 -6 -43 -5 -43 25 -43 18 0 31 5
32 13 0 6 2 21 4 32 2 11 6 37 8 58 3 21 7 40 9 43 3 2 15 -30 27 -71 21 -74
22 -75 55 -75 32 0 34 3 52 58 20 64 21 65 23 90 5 41 27 -54 30 -130 1 -14
10 -18 36 -18 40 0 39 -16 14 135 -5 33 -11 71 -13 85 -2 21 -9 25 -43 28
l-41 3 -27 -82 -28 -83 -26 82 -25 82 -38 0 c-22 0 -40 -5 -42 -12z"/>
<path d="M1097 1213 c-3 -5 -7 -30 -11 -58 -3 -27 -8 -60 -10 -72 -3 -11 -8
-42 -11 -67 l-7 -46 31 0 c18 0 31 5 32 13 0 6 2 19 3 27 2 8 6 37 9 64 6 45
17 76 17 46 0 -7 9 -44 20 -81 20 -67 22 -69 53 -69 30 0 34 4 51 49 17 49 23
71 26 101 4 40 26 -61 29 -132 1 -14 10 -18 36 -18 33 0 35 2 30 28 -2 15 -9
61 -15 102 -6 41 -12 84 -14 95 -2 16 -12 21 -43 23 l-41 3 -27 -82 -28 -82
-25 81 -25 82 -38 0 c-21 0 -40 -3 -42 -7z"/>
<path d="M1507 1178 c-8 -24 -29 -80 -46 -125 l-30 -83 30 0 c22 0 32 5 36 20
3 11 10 20 17 21 76 7 88 5 99 -18 8 -17 18 -23 43 -23 l33 0 -35 98 c-20 53
-41 109 -46 125 -8 23 -16 27 -48 27 -36 0 -39 -3 -53 -42z m68 -74 c19 -46
20 -44 -15 -44 -16 0 -30 4 -30 9 0 12 21 71 26 71 2 0 11 -16 19 -36z"/>
<path d="M1720 1095 l0 -125 30 0 30 0 0 82 0 83 23 -41 c70 -125 69 -124 115
-124 l42 0 0 125 0 125 -30 0 -30 0 0 -82 c0 -78 -1 -81 -14 -56 -8 15 -29 52
-48 83 -31 53 -34 55 -75 55 l-43 0 0 -125z"/>
<path d="M2030 1095 l0 -125 30 0 29 0 3 76 3 75 45 -75 c44 -76 45 -76 87
-76 l43 0 0 125 0 125 -30 0 -29 0 -3 -76 -3 -77 -45 77 c-45 76 -45 76 -87
76 l-43 0 0 -125z"/>
<path d="M196 1025 c-19 -20 -20 -26 -3 -49 26 -36 84 4 61 42 -15 23 -38 26
-58 7z"/>
<path d="M295 793 c0 -59 4 -88 13 -91 9 -3 12 20 12 87 0 68 -3 91 -13 91 -9
0 -13 -22 -12 -87z"/>
<path d="M157 863 c-12 -11 -8 -23 8 -23 8 0 15 7 15 15 0 16 -12 20 -23 8z"/>
<path d="M0 779 l0 -82 47 6 c55 6 83 33 83 81 0 48 -31 76 -85 76 l-45 0 0
-81z m88 49 c22 -22 15 -76 -13 -94 -38 -25 -51 -13 -49 42 1 27 2 52 3 57 2
12 46 8 59 -5z"/>
<path d="M157 813 c-9 -19 -1 -107 11 -110 9 -4 12 12 12 56 0 53 -10 78 -23
54z"/>
<path d="M219 798 c-5 -67 -3 -92 9 -95 8 -3 12 8 12 36 0 30 5 44 20 53 28
18 25 25 -10 25 -22 0 -30 -5 -31 -19z"/>
<path d="M356 798 c-32 -46 -5 -101 47 -96 17 2 32 8 34 14 2 7 -6 10 -23 6
-16 -3 -29 1 -35 9 -15 24 -10 29 24 29 42 0 48 6 35 36 -15 32 -61 33 -82 2z
m59 -8 c4 -6 -5 -10 -20 -10 -15 0 -24 4 -20 10 3 6 12 10 20 10 8 0 17 -4 20
-10z"/>
<path d="M460 813 c0 -3 8 -30 17 -60 20 -64 42 -67 59 -8 l11 40 13 -43 c16
-52 38 -53 55 -2 26 76 27 80 12 80 -8 0 -20 -19 -27 -42 l-13 -43 -11 40
c-15 51 -41 58 -51 13 -4 -18 -7 -37 -6 -41 1 -5 -3 -6 -8 -3 -5 3 -12 22 -15
41 -4 21 -13 35 -21 35 -8 0 -15 -3 -15 -7z"/>
<path d="M660 807 c0 -7 11 -13 27 -12 37 0 40 -22 4 -30 -29 -6 -48 -35 -37
-54 4 -5 26 -9 50 -8 l44 2 -3 47 c-2 26 -6 52 -10 57 -9 16 -75 14 -75 -2z
m58 -69 c-7 -19 -38 -22 -38 -4 0 10 9 16 21 16 12 0 19 -5 17 -12z"/>
<path d="M780 757 c0 -42 4 -57 12 -55 7 3 13 20 13 39 1 41 11 59 31 59 14 0
17 -10 17 -67 0 -21 4 -33 13 -33 10 0 14 14 14 48 0 63 -8 71 -58 69 l-42 -1
0 -59z"/>
<path d="M921 799 c-15 -16 -19 -31 -15 -52 7 -44 13 -49 46 -45 25 4 29 2 26
-16 -2 -16 -10 -21 -35 -21 -20 0 -33 -5 -33 -12 0 -20 57 -16 78 5 14 14 18
33 17 87 l0 70 -32 3 c-22 2 -37 -3 -52 -19z m59 -26 c0 -37 -14 -57 -34 -50
-19 7 -21 48 -4 65 21 21 38 14 38 -15z"/>
</g>
</svg>
